# xmcd
# 
# Track frame offsets:
#     150
#     23712
#     53340
#     84352
#     107720
#     140877
#     167982
#     202977
#     225395
#     245317
#     264490
#     287225
# 
# Disc length: 4139
# 
# Revision: 5
# Processed by: cddbd v1.5.2PL0 Copyright (c) Steve Scherf et al.
# Submitted via: fre:ac v1.0.17
# 
DISCID=9c10290c
DTITLE=Hank Shizzoe - In Concert - Set 2 with Sonny Landreth
DYEAR=2003
DGENRE=Blues
TTITLE0=Oh So Near
TTITLE1=Don't Bore Me, Man
TTITLE2=Joe Went To The Water
TTITLE3=You Make It Sway
TTITLE4=Zoo
TTITLE5=Isbjorn
TTITLE6=Six Blade Knife
TTITLE7=Being There With You
TTITLE8=She Belongs To Me
TTITLE9=Cabin Down Below
TTITLE10=Real Tigers
TTITLE11=The Life Of A Thief
EXTD=Hank Shizzoe: Vocals, Guitar, Bouzouki\nSonny Landreth: Guitar\nMichel Poffet: Upright Bass\nChristoph Beck: Drums, Vocals\n
EXTT0=
EXTT1=
EXTT2=
EXTT3=
EXTT4=
EXTT5=
EXTT6=
EXTT7=
EXTT8=
EXTT9=
EXTT10=
EXTT11=
PLAYORDER=
